<?xml version="1.0" encoding="UTF-8" standalone="no"?>
<!DOCTYPE svg PUBLIC "-//W3C//DTD SVG 1.1//EN" "http://www.w3.org/Graphics/SVG/1.1/DTD/svg11.dtd">
<svg width="100%" height="100%" viewBox="0 0 4022 4022" version="1.1" xmlns="http://www.w3.org/2000/svg" xmlns:xlink="http://www.w3.org/1999/xlink" xml:space="preserve" xmlns:serif="http://www.serif.com/" style="fill-rule:evenodd;clip-rule:evenodd;stroke-linejoin:round;stroke-miterlimit:2;">
    <g transform="matrix(1,0,0,1,-489.333333,-489.333333)">
        <g transform="matrix(0.23001,0,0,0.23001,2500,2500)">
            <g transform="matrix(1,0,0,1,-8741.666667,-8741.666667)">
                <clipPath id="_clip1">
                    <rect x="0" y="0" width="17483.333" height="17483.333"/>
                </clipPath>
                <g clip-path="url(#_clip1)">
                    <g transform="matrix(0.416667,0,0,-0.416667,0,17483.333333)">
                        <path d="M20360,41949C19201,41912 17989,41776 16880,41559C14257,41046 11705,39993 9442,38491C9110,38271 8819,38068 8766,38020C8723,37982 8691,37920 8690,37878C8690,37835 8729,37742 8757,37720C8789,37695 8822,37695 8896,37720C8928,37732 9020,37755 9100,37771C9769,37911 10305,38101 10746,38356C10800,38387 10931,38470 11035,38540C11261,38691 11313,38721 11619,38874C12535,39332 13259,39650 14045,39939C16859,40974 19833,41358 22875,41079C25112,40874 27284,40298 29360,39359C29627,39239 30354,38874 30640,38717C31221,38399 31742,38082 32309,37702C32443,37613 32557,37543 32561,37547C32565,37551 32580,37600 32595,37655C32621,37749 32637,37787 32723,37953C32809,38121 32795,38253 32678,38376C32603,38455 32543,38499 32315,38642C30843,39561 29532,40204 28030,40743C25561,41628 22983,42034 20360,41949Z" style="fill:rgb(71,49,121);fill-rule:nonzero;"/>
                        <path d="M35678,41170C35034,41094 34429,40755 34111,40290C34000,40128 33781,39693 33613,39302C33422,38855 33293,38511 32975,37600C32765,36998 32711,36852 32653,36732C32493,36403 32333,36352 31762,36445C31596,36472 31395,36514 30740,36659C29679,36893 29262,36948 28650,36937C27969,36924 27457,36809 26958,36556C26814,36484 26606,36360 26626,36360C26632,36360 26699,36373 26776,36389C27035,36444 27178,36461 27430,36467C27613,36471 27700,36469 27825,36455C28443,36389 28949,36256 29980,35891C30615,35665 31285,35527 31964,35480C32146,35468 32184,35458 32228,35414C32262,35380 32263,35378 32258,35312C32254,35261 32213,35125 32082,34730C31682,33522 31160,31807 30734,30305C30589,29793 30560,29699 30513,29580C30423,29351 30310,29171 30160,29019C30044,28901 29989,28870 29896,28870C29840,28870 29826,28874 29784,28903C29680,28974 29635,29123 29625,29440C29604,30070 29750,30533 30231,31370C30389,31646 30534,31931 30569,32036C30630,32220 30614,32364 30521,32463C30468,32520 30411,32551 30303,32582C30239,32601 30201,32605 30090,32605C29962,32604 29950,32603 29855,32569C29734,32527 29662,32481 29573,32388C29504,32317 29465,32290 29433,32290C29423,32290 29338,32341 29243,32404C29049,32533 28931,32594 28780,32644C28633,32693 28534,32711 28394,32717C28110,32730 27900,32660 27585,32452C27231,32218 26954,32084 26676,32015C26297,31920 25945,31949 25580,32107C25449,32164 25359,32180 25158,32183L25001,32185L24935,32119L24938,31847C24943,31464 24926,31280 24834,30740C24674,29797 24518,29265 24249,28740C24156,28558 24091,28468 24019,28420C23973,28389 23959,28385 23890,28382C23723,28374 23632,28459 23532,28719C23459,28906 23434,29014 23420,29210C23396,29549 23461,29928 23739,31075C23857,31563 23907,31779 23921,31869C23939,31989 23918,32084 23856,32157C23802,32221 23627,32280 23493,32280C23286,32279 23081,32164 22975,31991C22846,31778 22694,30988 22615,30117C22569,29614 22519,29412 22391,29204C22319,29088 22261,29025 22079,28864C21874,28682 21807,28645 21703,28652C21530,28665 21418,28790 21369,29026C21342,29153 21332,29554 21350,29753C21393,30231 21542,30732 21835,31390C21985,31726 22018,31828 22027,31990C22041,32261 21919,32441 21692,32481C21594,32499 21367,32449 21229,32380C21111,32320 21008,32212 20953,32090C20901,31974 20685,31071 20586,30555C20572,30484 20536,30273 20505,30087C20407,29489 20323,29237 20141,28993C20022,28833 19804,28654 19662,28599C19585,28570 19498,28569 19444,28597C19348,28648 19266,28798 19206,29037C19150,29257 19133,29431 19120,29932C19106,30453 19117,30930 19176,32305C19185,32509 19195,32992 19199,33380C19207,34052 19208,34089 19228,34167C19269,34327 19341,34431 19447,34488C19530,34531 19617,34555 19834,34595C19939,34614 20054,34638 20090,34649C20170,34673 20481,34782 20534,34805C20692,34872 20873,35076 20952,35275C20993,35378 20997,35492 20963,35555C20920,35636 20844,35687 20723,35717C20671,35730 20612,35734 20470,35733C20213,35732 19988,35697 19652,35604C19433,35543 19365,35548 19339,35627C19325,35670 19326,35703 19369,36385C19386,36649 19411,37059 19425,37295C19439,37532 19462,37885 19475,38080C19501,38465 19499,38536 19459,38666C19417,38805 19331,38923 19201,39022C19078,39114 18972,39151 18888,39130C18819,39112 18755,39057 18638,38911C18412,38630 18170,38387 17880,38149C17650,37961 17366,37757 17214,37672C17125,37622 17030,37536 17030,37507C17030,37488 17080,37481 17270,37474C17540,37463 17775,37501 18085,37605C18308,37679 18340,37687 18379,37670C18422,37653 18435,37611 18434,37495C18433,37384 18397,36616 18376,36245C18368,36113 18364,35989 18366,35970C18406,35590 18407,35495 18372,35402C18345,35333 18307,35287 18239,35241C18152,35183 18042,35144 17806,35089C17401,34995 17224,34917 17091,34775C17020,34699 16978,34616 16949,34495C16909,34325 16907,34025 16945,33933C16979,33852 17032,33820 17132,33820C17214,33820 17302,33842 17607,33939C17882,34027 18007,34060 18145,34084C18294,34110 18277,34141 18285,33838C18293,33553 18292,33543 18225,31785C18149,29797 18129,29093 18141,28880C18170,28351 18332,27905 18627,27540C18718,27428 18886,27270 18974,27215C19016,27189 19090,27153 19138,27136C19217,27109 19236,27106 19340,27106C19476,27107 19579,27134 19726,27206C19921,27301 20037,27392 20381,27718C20498,27829 20599,27920 20605,27920C20611,27920 20636,27892 20660,27858C20685,27823 20757,27743 20820,27679C20917,27582 20948,27557 21017,27523C21122,27470 21217,27453 21316,27468C21472,27492 21653,27581 21856,27733C21992,27835 22081,27920 22311,28170C22419,28288 22528,28405 22554,28429L22599,28473L22618,28429C22752,28121 22788,28043 22826,27971C23020,27606 23298,27375 23660,27278C23757,27252 23989,27242 24098,27260C24262,27286 24432,27354 24580,27453C24684,27522 24861,27704 24939,27820C25140,28123 25358,28698 25519,29348C25605,29692 25737,30379 25761,30605C25767,30660 25779,30718 25787,30733C25804,30768 25854,30790 25913,30790C25937,30790 26017,30801 26091,30815C26264,30847 26460,30849 26460,30819C26460,30814 26431,30726 26395,30625C26152,29934 25966,29119 25860,28288C25812,27909 25820,27772 25902,27602C26038,27317 26360,27225 26748,27362C27068,27474 27407,27721 27961,28246C28036,28317 28204,28476 28334,28600C28465,28724 28575,28826 28579,28828C28583,28829 28594,28795 28604,28753C28761,28077 29013,27664 29331,27559C29437,27524 29588,27526 29715,27564C29883,27615 30101,27742 30281,27894L30358,27958L30418,27855C30587,27570 30780,27409 31042,27338C31113,27319 31149,27316 31295,27316C31439,27316 31485,27320 31595,27343C32398,27508 33076,27961 33709,28754C33765,28824 33810,28883 33810,28885C33810,28903 33577,28798 33240,28628C32777,28395 32494,28283 32179,28205C31865,28128 31660,28154 31516,28290C31331,28464 31312,28764 31446,29368C31661,30339 31971,31406 32665,33565C32810,34016 32990,34581 33065,34820C33141,35059 33216,35281 33232,35312C33294,35429 33387,35497 33555,35550C33610,35568 33718,35602 33795,35627C35025,36027 36098,36755 37005,37805C37185,38014 37336,38206 37429,38346C37957,39139 37892,40046 37264,40650C36963,40939 36620,41108 36220,41165C36108,41181 35796,41183 35678,41170ZM36090,40034C36321,39980 36541,39779 36595,39575C36614,39500 36614,39337 36595,39245C36542,38993 36353,38627 36134,38350C36058,38253 35631,37825 35430,37643C34920,37182 34532,36933 34082,36776C33963,36735 33702,36665 33695,36672C33692,36675 33920,37270 34107,37745C34411,38520 34774,39285 34943,39510C35098,39718 35345,39892 35635,39998C35775,40050 35962,40065 36090,40034ZM28637,31640C28718,31600 28796,31525 28830,31455C28862,31386 28869,31260 28845,31153C28799,30946 28667,30645 28530,30436C28283,30059 27870,29604 27395,29189C27205,29024 26920,28796 26913,28804C26902,28815 26959,29130 27006,29322C27109,29738 27251,30103 27515,30630C27758,31116 27906,31333 28117,31510C28271,31638 28369,31682 28492,31677C28555,31674 28581,31667 28637,31640Z" style="fill:rgb(71,49,121);fill-rule:nonzero;"/>
                        <path d="M15350,38783C15020,38766 13510,38459 11975,38099C10747,37810 9323,37454 9070,37372C8757,37271 8651,37259 8542,37314C8456,37357 8410,37440 8365,37630C8297,37921 8231,38079 8128,38194C8017,38319 7902,38366 7728,38358C7473,38345 7288,38208 7216,37980C7148,37766 7166,37534 7272,37260C7348,37063 7354,37010 7305,36952C7291,36936 7259,36913 7233,36902C7206,36891 7016,36838 6810,36785C5535,36457 4209,36081 3605,35877C3108,35708 2624,35504 2439,35385C2188,35223 2099,35028 2183,34822C2229,34707 2272,34648 2415,34504C2524,34395 2582,34346 2679,34281C2837,34176 2990,34102 3177,34040C3423,33959 3609,33927 4150,33870C5749,33704 7113,33047 8203,31921C8464,31651 8608,31475 8819,31172C8891,31069 8987,30937 9034,30879C9123,30767 9292,30600 9298,30618C9304,30638 9156,30989 9045,31215C8825,31662 8593,32018 8267,32410C8116,32591 7711,32998 7525,33156C6784,33786 5891,34320 4603,34905C4519,34943 4452,34975 4454,34977C4455,34978 4958,35115 5570,35280C6183,35446 6883,35636 7125,35702C7686,35856 7703,35857 7782,35744C7797,35722 7861,35562 7924,35385C8099,34896 8189,34653 8625,33490C9152,32085 9329,31599 9546,30956C9691,30527 10229,28839 10509,27933C10576,27717 10642,27516 10656,27485C10691,27409 10697,27357 10676,27325C10637,27266 10550,27243 10477,27274C10434,27292 10308,27393 10113,27569C9900,27759 9818,27819 9675,27890C9534,27960 9422,27994 9280,28011C9065,28036 8990,28005 8990,27890C8990,27839 9030,27792 9102,27761C9355,27649 9462,27578 9559,27456C9678,27307 9759,27140 9850,26855C10043,26254 10082,26150 10171,25981C10371,25605 10607,25436 10975,25405C11215,25384 11598,25481 11787,25611C11943,25718 12057,25885 12108,26081C12146,26223 12155,26310 12154,26520C12154,26831 12126,26983 11974,27490C11674,28491 11248,29762 10645,31465C10520,31817 10413,32132 10407,32165C10385,32290 10428,32323 10711,32399C11315,32561 12347,32862 12605,32950C12984,33080 13179,33236 13231,33450C13251,33533 13247,33654 13221,33740C13183,33865 13084,33943 12904,33989C12674,34049 12475,34043 12096,33964C11695,33880 11211,33749 10579,33551C10384,33491 10205,33436 10180,33431C10084,33409 10004,33424 9952,33473C9911,33511 9871,33604 9735,33984C9564,34463 9425,34833 9177,35475C9007,35917 8976,36005 8972,36061C8968,36120 8970,36129 8994,36157C9032,36202 9088,36222 9401,36300C9557,36339 10027,36459 10445,36566C13056,37236 14534,37585 15189,37684C15634,37752 15837,37814 15990,37929C16092,38006 16149,38099 16171,38224C16185,38305 16178,38405 16154,38475C16131,38540 16036,38636 15959,38673C15790,38752 15558,38794 15350,38783Z" style="fill:rgb(71,49,121);fill-rule:nonzero;"/>
                        <path d="M35470,35954C35418,35944 35342,35916 35265,35878C35159,35825 34890,35667 34893,35659C34894,35655 35042,35500 35221,35314C35577,34944 35713,34798 35955,34525C36980,33372 37858,32156 38582,30890C38936,30271 39309,29522 39585,28875C40469,26805 40976,24610 41115,22255C41153,21609 41160,20543 41130,19975C41017,17799 40644,15928 39945,14025C39040,11560 37553,9177 35609,7076C35332,6777 35307,6749 35311,6746C35313,6744 35376,6735 35450,6726C35594,6708 35803,6661 35873,6631C35896,6621 35941,6596 35973,6577C36107,6496 36145,6513 36372,6758C37308,7765 38093,8788 38787,9905C40024,11898 40976,14232 41474,16495C41723,17628 41864,18684 41931,19910C41948,20228 41954,21227 41941,21585C41807,25269 40827,28678 39047,31660C38360,32810 37589,33861 36665,34905C36298,35320 35863,35776 35755,35857C35654,35934 35551,35969 35470,35954Z" style="fill:rgb(71,49,121);fill-rule:nonzero;"/>
                        <path d="M6515,35133C6422,35121 6247,35086 6144,35060C6017,35027 5634,34912 5612,34901C5596,34892 5807,34732 5892,34689C6061,34604 6151,34654 6443,34993C6554,35121 6570,35142 6553,35139C6548,35138 6532,35135 6515,35133Z" style="fill:rgb(71,49,121);fill-rule:nonzero;"/>
                        <path d="M22142,34850C21976,34827 21859,34770 21743,34654C21679,34590 21653,34555 21621,34489C21554,34349 21528,34194 21549,34050C21592,33758 21768,33561 22051,33489C22084,33480 22156,33475 22235,33475C22343,33475 22378,33479 22440,33499C22674,33571 22829,33726 22901,33960C22920,34020 22925,34058 22925,34150C22925,34281 22904,34366 22844,34480C22711,34735 22421,34887 22142,34850Z" style="fill:rgb(71,49,121);fill-rule:nonzero;"/>
                        <path d="M4432,33459C4255,33442 4096,33385 4032,33316C3988,33268 3734,32907 3533,32605C2913,31675 2432,30814 1965,29800C1,25531 -490,21138 496,16660C1193,13495 2440,10703 4203,8355C4599,7828 4982,7367 5454,6850C5671,6613 6349,5935 6595,5710C7926,4492 9362,3477 11030,2576C11347,2404 12115,2021 12435,1875C14774,808 17168,196 19600,45C20394,-4 21325,-4 22115,45C23881,155 25715,503 27513,1069C29230,1610 30874,2403 32478,3463L32682,3597L32608,3643C32568,3668 32516,3696 32492,3705C32438,3727 32364,3721 32323,3692C32279,3660 32162,3604 32093,3581C32059,3570 31944,3538 31837,3510C31499,3424 31418,3385 31251,3225C31180,3158 31112,3103 31075,3083C30940,3012 30809,2999 30660,3043C30498,3090 30383,3088 30215,3033C30171,3019 30020,2952 29880,2885C29625,2762 29482,2696 28995,2474C28516,2256 28004,1990 27615,1757C27399,1628 27035,1384 26815,1221C26522,1004 26373,936 26190,936C26030,935 25938,977 25778,1126C25665,1231 25592,1273 25495,1291C25417,1305 25364,1299 25070,1239C23660,952 22366,820 20980,820C19496,820 18112,972 16640,1296C13235,2046 10188,3604 7570,5934C6969,6469 6273,7169 5760,7755C4577,9105 3566,10643 2799,12262C1642,14703 1000,17181 850,19780C809,20497 809,21383 850,22110C1004,24813 1635,27282 2800,29730C3112,30387 3515,31114 3933,31775C4258,32289 4789,33047 4926,33192C4973,33241 4980,33254 4980,33289C4980,33377 4873,33438 4681,33460C4585,33471 4552,33471 4432,33459Z" style="fill:rgb(71,49,121);fill-rule:nonzero;"/>
                        <path d="M16401,32619C15953,32585 15630,32417 15487,32141C15345,31870 15307,31301 15401,30876C15452,30643 15571,30360 15701,30160C15735,30108 15813,29998 15875,29915C16070,29653 16274,29333 16454,29005C16590,28757 16879,28174 16896,28112C16926,28004 16892,27915 16798,27853C16762,27829 16747,27825 16681,27825C16605,27825 16604,27825 16460,27903C16380,27946 16272,28011 16220,28048C16095,28136 15886,28345 15723,28545C15521,28793 15435,28865 15283,28916C15139,28965 14983,28936 14829,28834C14684,28738 14538,28581 14232,28192C13972,27861 13838,27746 13701,27732C13576,27720 13461,27814 13380,27992C13318,28131 13252,28379 13219,28605C13198,28740 13201,29133 13223,29285C13288,29723 13436,30156 13707,30694C13800,30877 13843,30932 13907,30949C14010,30977 14124,30894 14151,30773C14167,30702 14152,30608 14100,30450C14032,30241 13964,30115 13836,29956C13729,29824 13680,29751 13626,29643C13502,29394 13451,29094 13465,28701C13469,28594 13475,28499 13479,28488C13485,28471 13501,28480 13620,28566C13828,28715 13879,28759 14111,28990C14344,29222 14452,29351 14591,29558C14793,29863 14918,30172 14982,30527C15001,30637 15005,30689 15005,30900C15005,31293 14961,31497 14833,31694C14611,32038 14190,32173 13785,32029C13480,31922 13261,31731 13015,31360C12651,30810 12448,30213 12345,29395C12303,29055 12289,28658 12311,28420C12375,27725 12690,27078 13097,26802C13489,26536 13949,26586 14356,26938C14584,27136 14736,27378 14971,27917C14995,27974 15017,28019 15020,28019C15023,28019 15071,27953 15127,27872C15568,27236 15973,26909 16478,26781C16603,26749 16686,26739 16825,26739C17153,26740 17453,26861 17697,27093C18005,27386 18044,27740 17835,28350C17698,28750 17545,29026 16913,30023C16696,30366 16593,30541 16496,30740C16342,31053 16294,31205 16302,31358C16307,31456 16326,31504 16382,31557C16443,31615 16500,31634 16636,31638C16775,31643 16871,31628 17046,31574C17258,31510 17282,31524 17360,31759C17419,31935 17419,32061 17359,32190C17337,32238 17307,32276 17242,32340C17024,32555 16753,32645 16401,32619Z" style="fill:rgb(71,49,121);fill-rule:nonzero;"/>
                        <path d="M25749,26625C25387,26566 25070,26413 24630,26085C24133,25713 23667,25220 23210,24580C23093,24417 22856,24058 22760,23900C22611,23655 22545,23601 22363,23576C22249,23560 22235,23549 22200,23444C22188,23408 22161,23341 22140,23296C22046,23092 22009,22916 21970,22485C21931,22057 21904,21919 21821,21703C21718,21436 21690,21296 21685,21019C21682,20891 21675,20796 21665,20744C21618,20518 21484,20299 21236,20042C21153,19956 21126,19940 21068,19940C21015,19940 20967,19968 20943,20012C20917,20060 20912,20442 20935,20653C20965,20934 21026,21215 21100,21420C21184,21650 21229,21792 21244,21868C21266,21983 21271,22028 21263,22033C21258,22036 21181,22029 21090,22019C20713,21976 20618,21930 20530,21746C20495,21672 20360,21269 20295,21045C20262,20932 20177,20509 20150,20330C20090,19917 20104,19586 20192,19360C20222,19283 20294,19176 20343,19136C20437,19061 20530,19030 20671,19030C20829,19030 21012,19089 21177,19192C21378,19319 21512,19483 21667,19794C21730,19920 21733,19923 21749,19903C21758,19892 21794,19846 21829,19801C21920,19685 22044,19571 22126,19528C22221,19479 22284,19466 22394,19473C22594,19485 22845,19599 23299,19881L23473,19990L23466,19905C23462,19852 23448,19783 23428,19722C23389,19603 23384,19514 23415,19480C23447,19444 23518,19417 23582,19417C23626,19417 23654,19424 23703,19448C23825,19508 23902,19609 24169,20060C24452,20537 24717,20920 25003,21263C25399,21738 25730,22038 26112,22265C26259,22353 26284,22360 26323,22330C26354,22305 26358,22266 26336,22204C26307,22123 26047,21677 25775,21240C25377,20602 25257,20372 25135,20006C25071,19813 25062,19754 25084,19675C25117,19564 25240,19473 25374,19463C25434,19458 25446,19460 25504,19489C25613,19543 25668,19613 25983,20105C26042,20199 26153,20378 26228,20503C26396,20783 26488,20907 26650,21074C26896,21327 27172,21521 27568,21719C27775,21823 28055,21940 28109,21946C28167,21953 28216,21928 28242,21879C28280,21807 28263,21747 28110,21430C27980,21159 27641,20410 27560,20215C27359,19728 27258,19373 27208,18975C27201,18920 27196,18773 27195,18649L27195,18423L27170,18430C27156,18434 27064,18463 26965,18493C26866,18524 26740,18560 26685,18574C26098,18721 25613,18663 25266,18406C24891,18129 24675,17634 24619,16926C24604,16736 24613,16263 24635,16040C24655,15841 24693,15546 24756,15105C24827,14603 24823,14454 24730,14310C24684,14238 24604,14169 24508,14120C24407,14068 24390,14054 24390,14023C24390,13954 24456,13924 24587,13934C24817,13951 24870,13952 24870,13940C24870,13934 24852,13869 24830,13797C24809,13724 24752,13523 24705,13350C24605,12986 24531,12757 24456,12584C24332,12298 24251,12211 24107,12210C23992,12210 23963,12247 23950,12409C23945,12467 23934,12560 23926,12615C23896,12810 23888,13049 23895,13470C23899,13693 23899,13928 23895,13992L23887,14110L23854,14116C23831,14120 23793,14114 23737,14097C23692,14083 23624,14066 23587,14060C23494,14045 23367,14005 23295,13966C23200,13917 23101,13812 23052,13710C23003,13607 22986,13546 22960,13362C22937,13200 22903,13032 22865,12880C22808,12653 22597,11923 22566,11841C22456,11557 22295,11342 22163,11304C22034,11266 21914,11321 21860,11442C21795,11591 21773,12167 21818,12585C21911,13446 22084,14244 22380,15169C22509,15573 22553,15660 22654,15712C22711,15742 22850,15739 23040,15705C23289,15660 23382,15654 23498,15673C23630,15694 23741,15738 23851,15812C24002,15912 24047,15998 24037,16159C24027,16324 23981,16415 23885,16457C23848,16473 23803,16474 23313,16471C23020,16469 22780,16471 22780,16476C22780,16480 22945,16985 23147,17599C23492,18649 23514,18720 23518,18801C23524,18913 23504,18977 23445,19035C23382,19099 23311,19123 23170,19128C22981,19134 22854,19096 22749,19002C22664,18926 22635,18869 22558,18631C22520,18512 22417,18199 22330,17935C22243,17671 22130,17320 22080,17156C21964,16777 21930,16707 21836,16657C21803,16640 21779,16636 21710,16636C21633,16637 21606,16643 21425,16703C21085,16814 20808,16887 20375,16980C20119,17035 20056,17057 19993,17114C19933,17168 19900,17249 19815,17545C19430,18902 19091,19878 18612,21005C18321,21691 18150,22105 18154,22116C18156,22122 18211,22132 18277,22139C19095,22224 19469,22282 19727,22366C20025,22463 20244,22718 20228,22949C20218,23078 20148,23174 20017,23235C19867,23305 19690,23317 19430,23275C19058,23214 18707,23124 18275,22978C17948,22868 17902,22860 17840,22896C17821,22907 17792,22937 17777,22962C17761,22988 17692,23164 17625,23353C17467,23796 17366,24064 17219,24430C17090,24754 17075,24801 17083,24861C17093,24940 17152,24973 17310,24989C17481,25006 17865,25019 18520,25030C19627,25047 20075,25069 20580,25130C21067,25189 21314,25283 21515,25485C21675,25645 21730,25820 21680,26014C21654,26117 21607,26203 21540,26270C21472,26337 21405,26374 21304,26400C21170,26434 21074,26428 20510,26349C18954,26132 18051,25983 17171,25799C16980,25759 16913,25749 16860,25752C16753,25758 16740,25771 16617,26023C16454,26354 16333,26522 16209,26586C16162,26611 16144,26615 16069,26615C15991,26615 15978,26612 15908,26577C15742,26495 15670,26359 15670,26126C15670,25994 15693,25861 15739,25730C15784,25603 15787,25582 15765,25540C15739,25490 15678,25465 15408,25396C14830,25248 13610,24881 12897,24640C12537,24519 11962,24303 11870,24255C11846,24242 11846,24242 11895,24233C11923,24229 12033,24225 12140,24226L12335,24227L13199,24384C14720,24660 14936,24699 15390,24787C15880,24881 15947,24888 16017,24852C16059,24830 16095,24791 16123,24734C16132,24718 16233,24475 16348,24194C16577,23639 16697,23359 16844,23033C16936,22830 16970,22735 16970,22682C16970,22635 16947,22580 16913,22545C16865,22496 16803,22467 16590,22395C16317,22302 16137,22237 15615,22044C15357,21948 15138,21867 15130,21864C15109,21856 15149,21825 15227,21788C15271,21767 15311,21757 15362,21753C15447,21747 15507,21757 16005,21865C16549,21983 16796,22021 17030,22024C17153,22025 17169,22023 17212,22002C17262,21977 17304,21932 17338,21865C17349,21842 17423,21674 17503,21490C17768,20877 18381,19508 19070,17985C19272,17540 19436,17174 19435,17173C19434,17171 19364,17179 19280,17190C18630,17274 18328,17295 17780,17295C17034,17295 16610,17248 16151,17115C15893,17040 15684,16946 15415,16784C15227,16671 15150,16598 15089,16475C15066,16428 15049,16387 15052,16384C15055,16381 15102,16410 15156,16448C15378,16605 15634,16747 15830,16825C16021,16900 16387,16978 16730,17017C16946,17041 17526,17041 17755,17017C18228,16966 18704,16873 19220,16729C19538,16641 19588,16622 19634,16577C19685,16526 19748,16405 19873,16118C19925,15999 19988,15867 20014,15823C20062,15743 20152,15629 20188,15604C20207,15591 20209,15593 20221,15643C20243,15731 20236,15857 20196,16051C20159,16234 20147,16390 20172,16390C20178,16390 20306,16352 20457,16305C20940,16154 21217,16078 21495,16020C21577,16003 21654,15987 21666,15984C21703,15975 21730,15942 21730,15906C21730,15888 21694,15764 21649,15629C21352,14730 21160,13977 21026,13182C21001,13039 20974,12908 20966,12892C20944,12849 20887,12805 20828,12786C20755,12763 20723,12765 20691,12798C20668,12821 20659,12848 20632,12975C20593,13157 20580,13286 20580,13475C20580,13903 20503,14116 20297,14261C20205,14326 20113,14354 20022,14348C19901,14338 19811,14296 19623,14159C19551,14107 19525,14094 19505,14097C19483,14102 19480,14107 19480,14145C19480,14169 19490,14232 19501,14286C19526,14404 19531,14539 19511,14594C19491,14652 19429,14713 19357,14746C19304,14771 19283,14775 19210,14775C19134,14775 19117,14771 19059,14742C18970,14699 18869,14593 18814,14485C18789,14437 18715,14232 18630,13975C18383,13229 18244,12862 18089,12541C17915,12182 17748,11937 17525,11715C17317,11507 17174,11422 17014,11412C16913,11406 16850,11420 16746,11471C16552,11567 16434,11703 16383,11891C16346,12028 16366,12399 16425,12650C16528,13085 16787,13544 17141,13914C17279,14059 17335,14077 17430,14009C17532,13935 17535,13797 17440,13593C17367,13437 17282,13338 17125,13227C17070,13188 17003,13135 16976,13110C16827,12972 16725,12766 16670,12497C16646,12378 16608,12098 16615,12091C16622,12084 16876,12236 17025,12338C17446,12623 17872,13024 18075,13326C18263,13605 18359,13906 18347,14175C18327,14589 18111,14919 17787,15031C17566,15107 17360,15089 17123,14974C16931,14882 16757,14724 16568,14473C16070,13810 15793,13152 15703,12420C15678,12211 15679,11790 15706,11585C15732,11383 15730,11290 15696,11165C15644,10972 15534,10751 15436,10643C15350,10548 15309,10541 15213,10605C15113,10671 15069,10758 15040,10946C15029,11017 15012,11111 15004,11155C14995,11199 14984,11307 14980,11395C14976,11483 14966,11650 14959,11765C14941,12047 14942,13087 14960,13390C14980,13728 14981,13716 14943,13750C14898,13790 14842,13804 14720,13804C14560,13805 14434,13754 14324,13644C14212,13533 14176,13447 14131,13187C14004,12461 13869,12006 13654,11577C13521,11310 13429,11191 13306,11127C13248,11097 13239,11095 13135,11095C13034,11095 13021,11097 12972,11123C12865,11179 12795,11280 12735,11464C12624,11804 12602,12190 12671,12585C12691,12704 12711,12820 12734,12968C12760,13134 12822,13220 12916,13220C12939,13220 12966,13217 12975,13214C13000,13204 13028,13140 13055,13026C13082,12912 13096,12875 13128,12847C13148,12829 13150,12829 13217,12861C13354,12928 13469,13076 13515,13245C13541,13337 13546,13564 13526,13674C13442,14119 13169,14425 12903,14371C12775,14346 12660,14270 12509,14112C12234,13824 12069,13457 12001,12975C11933,12495 11949,11986 12054,11308C12072,11193 12085,11100 12083,11100C12081,11100 12013,11164 11932,11243C11006,12135 9866,12931 8370,13732C7654,14116 6955,14454 5970,14895C5131,15271 4704,15475 4322,15685C3919,15905 3720,16041 3532,16225C3321,16429 3219,16630 3176,16923C3114,17340 3236,17760 3494,18015C3708,18227 4007,18324 4315,18280C4502,18253 4901,18139 5160,18038C5686,17833 6145,17541 6512,17178C6586,17105 6690,16997 6743,16939C6893,16773 6983,16726 7109,16748C7360,16790 7551,17032 7526,17272C7515,17377 7487,17424 7282,17680C6959,18083 6562,18468 6220,18712C5720,19067 5206,19272 4605,19357C4413,19384 4061,19381 3890,19352C3561,19296 3297,19194 3035,19022C2601,18739 2222,18260 2072,17805C1944,17419 1942,17038 2065,16611C2160,16281 2350,15914 2560,15654C2711,15468 2944,15258 3164,15111C3395,14956 3534,14885 3990,14685C5795,13894 7572,13010 9390,11997C9666,11844 9767,11783 9975,11645C10610,11225 11142,10714 11540,10142C11776,9803 11900,9564 11961,9330C11987,9231 11997,9017 11980,8913C11916,8511 11577,8087 11169,7896C10878,7760 10537,7726 10200,7800C9997,7844 9723,7946 9486,8068C9014,8309 8661,8647 8412,9095C8211,9460 8094,9879 8045,10417C8023,10663 7978,10791 7870,10912C7707,11095 7473,11134 7279,11010C7126,10911 7005,10692 6993,10490C6988,10403 7013,10251 7086,9925C7234,9272 7564,8622 8011,8105C8200,7886 8493,7621 8715,7468C9069,7222 9470,7050 9870,6970C10093,6926 10196,6916 10440,6916C10686,6917 10809,6929 11065,6981C11897,7148 12434,7517 12731,8125C12953,8581 12982,9033 12830,9692C12814,9764 12800,9824 12800,9825C12800,9826 12842,9820 12893,9812C12950,9804 13036,9800 13120,9802C13239,9806 13265,9810 13341,9836C13589,9923 13785,10146 14147,10751C14264,10947 14274,10961 14288,10944C14325,10896 14350,10817 14371,10690C14386,10590 14403,10526 14435,10445C14459,10385 14497,10283 14520,10220C14572,10079 14619,9984 14676,9904C14881,9614 15156,9639 15480,9976C15660,10163 15781,10396 15887,10755L15924,10882L15964,10834C16152,10607 16339,10474 16547,10419C16640,10394 16832,10389 16925,10409C17170,10462 17402,10577 17619,10753C17757,10865 17979,11101 18142,11310L18170,11345L18170,10775C18170,10188 18173,10147 18211,10109C18268,10052 18487,10132 18625,10261C18772,10399 18822,10538 18861,10915C18924,11544 19029,12010 19212,12473C19322,12753 19550,13191 19628,13273C19683,13331 19742,13344 19807,13313C19854,13291 19876,13239 19885,13130C19897,12980 20111,11930 20172,11725C20221,11557 20290,11476 20402,11456C20465,11444 20519,11466 20575,11524C20623,11575 20671,11662 20799,11932C20826,11988 20851,12026 20871,12040C20887,12052 20904,12059 20907,12056C20911,12052 20917,11990 20922,11917C20951,11442 21038,11051 21175,10777C21496,10140 22134,10025 22653,10510C22776,10626 22879,10758 23068,11043C23158,11179 23234,11290 23238,11290C23242,11290 23265,11230 23289,11158C23380,10880 23472,10744 23610,10683C23659,10661 23773,10661 23837,10683C23994,10738 24177,10906 24339,11147C24507,11397 24591,11559 24770,11970C24826,12099 24908,12279 24953,12370L25034,12535L25042,12490C25055,12413 25157,11477 25200,11050C25296,10078 25364,9163 25405,8305C25435,7666 25441,7444 25447,6808C25450,6451 25456,6160 25459,6160C25473,6161 25602,6374 25645,6470C25853,6929 25994,7472 26065,8085C26122,8584 26148,9379 26131,10090C26103,11191 26021,12124 25848,13305C25792,13685 25786,13741 25786,13895C25785,14054 25787,14068 25808,14112C25837,14169 25901,14230 25967,14263C26035,14298 26188,14345 26380,14391C26628,14451 26791,14505 26841,14543C26892,14581 26928,14647 26936,14715C26945,14789 26877,15138 26842,15204C26810,15262 26748,15306 26683,15316C26584,15331 26471,15288 26007,15058C25826,14968 25697,14910 25679,14910C25657,14910 25647,14916 25640,14934C25635,14947 25619,15119 25603,15316C25579,15630 25575,15728 25575,16095C25575,16546 25580,16615 25635,16885C25707,17243 25789,17429 25913,17514C25998,17573 26071,17591 26250,17597C26438,17604 26577,17589 26707,17549C26883,17495 26990,17513 27101,17617C27189,17699 27278,17866 27326,18038C27339,18081 27343,18150 27344,18325C27347,18583 27359,18685 27416,18920C27464,19114 27526,19279 27631,19490C27744,19716 27826,19852 28096,20255C28759,21246 28950,21580 29085,21983C29140,22150 29160,22256 29160,22384C29160,22559 29114,22688 29016,22786C28823,22978 28441,22995 28015,22830C27955,22806 27777,22722 27622,22643C27466,22563 27336,22501 27333,22503C27331,22506 27340,22580 27354,22667C27385,22859 27386,22917 27359,23006C27341,23063 27328,23083 27277,23135C27188,23224 27057,23280 26942,23280C26753,23279 26330,23067 25969,22794C25828,22687 25627,22516 25495,22389C25379,22278 25354,22264 25318,22293C25304,22303 25327,22351 25507,22680C25619,22886 25738,23106 25772,23169L25833,23283L25776,23276C25519,23243 25262,23084 24984,22785C24681,22460 24446,22070 24155,21410C23975,21002 23868,20836 23644,20620C23476,20458 23321,20349 23115,20250C22979,20185 22928,20168 22844,20163C22628,20147 22481,20303 22408,20624C22375,20765 22378,20962 22414,21155C22483,21521 22616,21961 22784,22379C22892,22647 22921,22701 22990,22771C23051,22833 23117,22870 23255,22920C23918,23160 24542,23476 25252,23931C25943,24375 26420,24809 26736,25285C26885,25508 26950,25681 26950,25853C26950,26124 26717,26442 26432,26559C26291,26617 26211,26632 26015,26636C25893,26638 25807,26635 25749,26625ZM25496,25711C25546,25688 25603,25633 25629,25582C25692,25459 25651,25312 25496,25106C25207,24720 24815,24437 24256,24210C24101,24148 23743,24028 23723,24032C23697,24038 23995,24508 24178,24750C24313,24928 24408,25036 24566,25190C24723,25343 24838,25436 25020,25555C25273,25722 25389,25759 25496,25711Z" style="fill:rgb(71,49,121);fill-rule:nonzero;"/>
                        <path d="M8935,26360C8748,26320 8655,26230 8630,26067C8610,25938 8646,25616 8710,25352C8887,24625 9185,23926 9715,23000C9878,22714 10248,22101 10429,21815C10513,21683 10577,21574 10573,21573C10569,21572 10502,21566 10425,21560C10261,21547 10135,21522 9997,21473C9802,21406 9679,21331 9554,21206C9385,21036 9310,20842 9310,20577C9310,20419 9329,20310 9397,20080C9471,19828 9544,19641 9660,19405C10047,18618 10485,18077 11025,17717C11245,17570 11396,17515 11554,17522C11671,17527 11738,17556 11819,17637C11962,17781 12044,18032 12070,18406C12084,18604 12072,18817 12019,19284C11997,19481 11981,19644 11983,19646C11990,19653 12154,19478 12369,19235C12743,18813 12991,18586 13238,18439C13341,18378 13533,18289 13595,18274L13624,18267L13590,18311C13571,18335 13501,18418 13435,18495C12267,19852 11509,20999 10920,22300C10516,23194 10165,24156 9764,25470C9652,25836 9612,25934 9531,26041C9469,26122 9346,26240 9277,26284C9172,26351 9033,26382 8935,26360ZM10697,20751C10872,20671 11052,20235 11124,19714C11174,19357 11196,18920 11169,18839C11151,18786 11112,18750 11073,18750C11026,18750 11005,18773 10805,19035C10366,19609 10234,19883 10204,20276C10186,20525 10281,20696 10473,20755C10537,20776 10647,20773 10697,20751Z" style="fill:rgb(71,49,121);fill-rule:nonzero;"/>
                        <path d="M21730,23414C21328,23310 21007,23060 20834,22717C20789,22629 20737,22486 20725,22419L20718,22383L20796,22377C20838,22373 20941,22370 21024,22370C21416,22371 21481,22437 21703,23060C21770,23248 21797,23310 21844,23384L21880,23440L21852,23439C21837,23439 21782,23427 21730,23414Z" style="fill:rgb(71,49,121);fill-rule:nonzero;"/>
                        <path d="M13579,22844C13513,22824 13440,22755 13402,22678C13350,22570 13336,22502 13337,22340C13337,22177 13342,22112 13407,21465C13448,21059 13454,20976 13454,20760C13455,20538 13453,20507 13433,20427C13385,20242 13326,20188 13222,20237C13164,20264 13039,20396 12987,20484C12893,20645 12876,20708 12720,21490C12557,22303 12542,22363 12480,22449C12416,22536 12308,22575 12209,22546C12132,22524 12090,22484 12003,22352C11896,22189 11876,22138 11883,22036C11888,21951 11959,21675 12080,21273C12398,20212 12735,19615 13126,19421C13373,19299 13643,19362 13820,19585C13924,19716 13985,19861 14070,20178C14097,20280 14121,20365 14124,20367C14131,20375 14212,20324 14367,20213C14596,20051 14701,19996 14838,19969C14904,19957 15056,19961 15099,19978C15122,19986 15118,19990 15047,20029C14663,20241 14406,20618 14231,21228C14157,21487 14110,21735 14050,22192C14024,22390 13991,22520 13936,22637C13845,22829 13735,22892 13579,22844Z" style="fill:rgb(71,49,121);fill-rule:nonzero;"/>
                        <path d="M27860,16041C27678,15981 27495,15731 27443,15471C27410,15301 27461,15135 27566,15074C27631,15036 27666,15029 27786,15029C27992,15030 28122,15070 28209,15159C28295,15248 28324,15376 28301,15565C28278,15757 28232,15869 28145,15949C28065,16022 27932,16065 27860,16041Z" style="fill:rgb(71,49,121);fill-rule:nonzero;"/>
                        <path d="M23801,15554C23761,15541 23681,15507 23625,15481C23369,15360 23220,15220 23107,14995C22997,14774 23023,14609 23177,14556C23206,14546 23290,14535 23390,14528C23579,14515 23663,14526 23774,14578C23969,14669 24062,14879 24077,15265C24082,15388 24080,15425 24066,15472C24034,15583 23956,15607 23801,15554Z" style="fill:rgb(71,49,121);fill-rule:nonzero;"/>
                        <path d="M36257,15309C36150,15297 36031,15254 35831,15154C35638,15058 35414,14917 35260,14794C35147,14704 34921,14476 34838,14370C34631,14102 34492,13822 34414,13514C34361,13305 34346,13174 34347,12940C34348,12733 34354,12665 34384,12554C34410,12458 34380,12413 34286,12403C34224,12396 34165,12427 34096,12501C33948,12660 33882,12869 33909,13093C33929,13264 34157,14189 34262,14525C34345,14789 34338,14874 34233,14899C34113,14928 33837,14841 33683,14726C33598,14662 33487,14542 33425,14447C33331,14302 33254,14136 33069,13684C32862,13175 32765,12980 32606,12745C32561,12679 32491,12570 32450,12503C32304,12262 32212,12195 32077,12234C31968,12266 31896,12362 31883,12493C31865,12691 32010,13214 32249,13812C32352,14071 32576,14592 32616,14667C32672,14774 32658,14835 32567,14882C32337,14999 31948,14883 31802,14653C31786,14626 31735,14499 31690,14370C31583,14064 31532,13937 31415,13684C31169,13152 30958,12773 30723,12442C30628,12308 30440,12067 30434,12073C30428,12078 30502,12462 30550,12675C30666,13185 30819,13690 31066,14374C31209,14769 31221,14824 31178,14910C31134,14996 31014,15028 30802,15010C30584,14992 30487,14949 30401,14835L30358,14778L30296,14783C30263,14785 30174,14798 30100,14811C29906,14844 29605,14845 29477,14812C29143,14728 28914,14520 28596,14012C28270,13492 28035,12908 27905,12295C27875,12154 27799,12029 27668,11904C27561,11801 27430,11730 27348,11730C27273,11731 27168,11806 27128,11888C27085,11978 27099,12070 27194,12320C27214,12372 27262,12505 27301,12615C27412,12927 27743,13785 27790,13882C27856,14018 27853,14088 27781,14139C27749,14162 27603,14212 27500,14236C27404,14259 27292,14256 27234,14230C27128,14184 27090,14134 26986,13911C26654,13199 26492,12452 26513,11740C26522,11451 26560,11339 26686,11221C26890,11030 27200,11042 27522,11253C27623,11318 27746,11416 27816,11487C27886,11558 27902,11557 27986,11479C28022,11446 28077,11406 28108,11392C28217,11341 28397,11362 28699,11462C28839,11508 29057,11622 29325,11790L29565,11940L29571,11912C29584,11857 29580,11593 29565,11509C29495,11105 29207,10793 28702,10570C28643,10544 28586,10519 28575,10515C28558,10508 28560,10506 28590,10499C28609,10494 28671,10486 28728,10481C28847,10469 28956,10477 29187,10515C29272,10530 29345,10539 29348,10536C29356,10528 29152,9576 28975,8794C28816,8095 28612,7255 28461,6686C28433,6581 28412,6495 28413,6493C28420,6486 28527,6567 28590,6627C28723,6752 28793,6866 28937,7189C29258,7913 29567,8779 29905,9905C30028,10316 30193,10893 30219,11004C30233,11065 30250,11109 30272,11141C30313,11201 31198,11996 31210,11984C31215,11979 31233,11928 31250,11870C31315,11647 31372,11532 31479,11402C31558,11307 31695,11223 31817,11194C31910,11172 32079,11180 32175,11210C32372,11272 32575,11411 32766,11613C32842,11694 33060,11959 33160,12093C33179,12118 33197,12140 33200,12140C33203,12140 33243,12084 33289,12015C33440,11787 33596,11648 33763,11594C33843,11568 33853,11567 34185,11559C34702,11548 34805,11533 35325,11393C35498,11346 35727,11364 35947,11441C36523,11642 37072,12222 37185,12747L37192,12780L36913,12642C36581,12478 36357,12378 36269,12355C36218,12341 36180,12339 36084,12344C36018,12347 35956,12352 35948,12355C35937,12359 36000,12428 36160,12588C36479,12908 36641,13100 36822,13375C37028,13687 37186,14065 37220,14329C37254,14596 37161,14846 36955,15039C36736,15244 36495,15337 36257,15309ZM36239,14315C36302,14262 36304,14188 36246,14016C36183,13828 36069,13628 35917,13441C35791,13285 35521,13022 35382,12918C35308,12863 35245,12821 35242,12825C35229,12838 35237,13096 35253,13188C35310,13500 35495,13849 35717,14061C35822,14161 35922,14231 36045,14291C36159,14347 36195,14351 36239,14315ZM29706,13940C29823,13867 29860,13691 29805,13474C29743,13229 29520,12866 29277,12613C29157,12488 29060,12413 28958,12365C28777,12279 28660,12322 28660,12475C28660,12601 28751,12893 28860,13115C28985,13371 29140,13581 29359,13792C29545,13971 29610,13999 29706,13940Z" style="fill:rgb(71,49,121);fill-rule:nonzero;"/>
                        <path d="M14774,15246C14740,15238 14685,15218 14651,15201C14456,15105 14343,14964 14285,14749C14265,14674 14210,14304 14210,14246C14210,14235 14221,14235 14263,14242C14334,14255 14477,14303 14547,14339C14738,14435 14900,14629 14970,14845C14977,14867 15000,14926 15021,14976C15081,15117 15071,15188 14988,15229C14931,15256 14849,15263 14774,15246Z" style="fill:rgb(71,49,121);fill-rule:nonzero;"/>
                        <path d="M31932,8658C31896,8645 31855,8616 31808,8571C31739,8507 31734,8499 31617,8260C31110,7221 30791,6473 30556,5768C30403,5309 30273,4825 30261,4668C30251,4540 30243,4530 30146,4530C30044,4529 29941,4508 29810,4460C29499,4347 29501,4348 29390,4342C29296,4338 29278,4340 29232,4360C29172,4386 29112,4447 29075,4520C29060,4549 29050,4574 29052,4576C29054,4578 29123,4597 29205,4619C29739,4762 30011,4943 30172,5265C30278,5476 30302,5694 30236,5844C30207,5909 30127,5998 30065,6034C29946,6104 29747,6138 29566,6120C29296,6093 29058,5979 28864,5785C28605,5526 28466,5173 28467,4775C28467,4605 28479,4530 28524,4398C28579,4241 28706,4084 28845,4002C29016,3902 29247,3860 29466,3891C29568,3905 29666,3936 29885,4025C30060,4096 30148,4126 30156,4117C30159,4115 30167,4048 30176,3969C30200,3728 30235,3625 30318,3544C30368,3495 30416,3473 30529,3444C30815,3371 31003,3422 31125,3606C31146,3637 31160,3663 31158,3664C31157,3666 31092,3684 31015,3705C30764,3774 30669,3825 30625,3914C30611,3942 30600,3981 30600,4004C30600,4042 30731,4572 30826,4918C30952,5377 31073,5736 31206,6047C31293,6251 31333,6332 31577,6798C31860,7338 31990,7623 32100,7946C32177,8170 32220,8342 32226,8445C32231,8527 32230,8539 32208,8580C32190,8613 32170,8632 32131,8652C32066,8686 32008,8688 31932,8658ZM29550,5630C29626,5609 29700,5528 29700,5466C29700,5425 29669,5365 29612,5296C29486,5144 29302,5043 29096,5014L29048,5007L29055,5041C29099,5243 29212,5451 29334,5554C29425,5631 29479,5650 29550,5630Z" style="fill:rgb(71,49,121);fill-rule:nonzero;"/>
                        <path d="M32798,8453C32758,8425 32742,8401 32630,8200C32574,8098 32425,7837 32300,7620C31741,6649 31568,6323 31317,5770C31091,5272 31000,4999 30949,4675C30942,4631 30936,4516 30936,4420C30935,4277 30938,4234 30953,4185C31006,4013 31117,3912 31302,3866C31532,3810 31750,3830 31945,3925C32030,3967 32170,4063 32177,4085C32179,4091 32131,4103 32061,4113C31769,4155 31603,4237 31555,4363C31530,4429 31539,4608 31574,4743C31609,4877 31790,5426 31853,5585C31971,5887 32163,6236 32545,6840C33060,7654 33150,7851 33150,8153C33150,8271 33127,8335 33069,8385C32986,8455 32851,8489 32798,8453Z" style="fill:rgb(71,49,121);fill-rule:nonzero;"/>
                        <path d="M17970,8404C17893,8379 17854,8357 17762,8288C17703,8243 17627,8195 17593,8179C17482,8129 17420,8055 17420,7973C17420,7915 17436,7868 17510,7705C17626,7448 17706,7215 17764,6963L17778,6900L17624,6900C17273,6900 17144,6824 17062,6570C17029,6468 17002,6355 16978,6214C16946,6024 16946,5690 16979,5505C17063,5031 17307,4577 17537,4463C17602,4431 17623,4426 17700,4422C17954,4410 18179,4577 18223,4811L18235,4870L18275,4870C18348,4870 18353,4866 18379,4780C18410,4676 18487,4518 18549,4427C18601,4353 18765,4182 18775,4192C18778,4195 18760,4270 18735,4360C18672,4580 18571,4999 18516,5261C18412,5754 18331,6237 18170,7325C18083,7908 18016,8339 18005,8388C18000,8410 17996,8412 17970,8404ZM17699,6418C17942,6295 18054,5985 18010,5555C17993,5383 17954,5303 17869,5260C17828,5238 17748,5233 17706,5250C17643,5274 17520,5430 17382,5663C17255,5878 17265,6124 17408,6332C17500,6466 17566,6485 17699,6418Z" style="fill:rgb(71,49,121);fill-rule:nonzero;"/>
                        <path d="M22126,7619C21854,7588 21506,7461 21275,7309C21168,7239 21013,7083 20973,7005C20912,6885 20896,6825 20896,6705C20895,6602 20897,6591 20927,6528C20967,6444 21041,6366 21097,6350C21153,6333 21199,6351 21317,6434C21365,6468 21417,6501 21432,6508C21465,6522 21461,6533 21485,6355C21559,5824 21668,5374 22021,4145C22114,3820 22190,3549 22190,3543C22190,3536 22072,3599 21929,3681C21785,3763 21666,3829 21664,3827C21659,3822 21768,3645 21855,3518C22130,3118 22382,2921 22710,2850C22998,2787 23294,2809 23532,2910C23699,2981 23877,3132 23984,3294C24164,3564 24261,3958 24247,4364C24226,4989 23928,5418 23430,5540C23283,5576 23268,5581 23244,5605C23213,5636 23214,5656 23254,5813C23296,5976 23315,6154 23306,6310C23278,6805 23165,7123 22934,7354C22721,7568 22450,7657 22126,7619ZM22435,6791C22557,6731 22650,6640 22708,6520C22766,6402 22783,6327 22783,6195C22782,6047 22763,5976 22554,5333C22491,5140 22440,4980 22440,4977C22440,4975 22464,4977 22493,4982C22521,4988 22608,4990 22685,4987C22797,4983 22843,4977 22915,4956C23294,4844 23591,4557 23692,4203C23725,4089 23724,3909 23691,3827C23637,3691 23514,3576 23310,3471C23152,3389 23047,3359 22894,3353C22752,3347 22620,3368 22583,3402C22547,3436 22524,3512 22476,3761C22317,4582 22228,5170 22185,5687C22163,5952 22147,6393 22153,6555C22159,6715 22172,6778 22207,6816C22244,6856 22317,6848 22435,6791Z" style="fill:rgb(71,49,121);fill-rule:nonzero;"/>
                        <path d="M19145,7295C18999,7255 18904,7203 18803,7107C18643,6954 18534,6732 18484,6455C18460,6320 18460,6061 18484,5930C18575,5433 18874,5130 19275,5128C19335,5128 19403,5134 19445,5144C19604,5182 19760,5288 19842,5414C19878,5470 19937,5627 19926,5638C19917,5646 19863,5621 19700,5534C19507,5431 19441,5408 19335,5408C19203,5408 19068,5476 19001,5577C18904,5723 18885,6024 18955,6295C19008,6497 19152,6749 19241,6796C19282,6817 19340,6813 19396,6785C19513,6727 19570,6650 19578,6541C19590,6368 19493,6223 19195,5967C19118,5900 19053,5845 19051,5843C19039,5834 19067,5834 19205,5840C19341,5846 19363,5850 19435,5878C19720,5990 19893,6199 19961,6512C20002,6698 19994,6853 19938,6969C19875,7101 19675,7239 19473,7291C19383,7314 19221,7316 19145,7295Z" style="fill:rgb(71,49,121);fill-rule:nonzero;"/>
                        <path d="M35290,6319C35142,6281 35023,6205 34917,6081C34796,5941 34705,5770 34658,5598C34638,5526 34635,5491 34635,5335C34635,5178 34638,5144 34658,5071C34706,4896 34745,4817 34934,4506C35051,4314 35075,4247 35068,4127C35064,4061 35057,4033 35032,3984C34977,3876 34846,3764 34727,3723C34647,3696 34529,3700 34460,3732C34346,3784 34299,3849 34256,4015C34191,4263 34070,4401 33882,4441C33799,4458 33610,4447 33450,4415C33328,4390 33301,4388 33170,4393C32862,4405 32730,4479 32730,4639C32730,4743 32770,4764 32915,4741C32999,4727 33402,4746 33501,4769C33690,4812 33836,4888 33962,5008C34142,5180 34240,5362 34240,5519C34239,5650 34193,5764 34099,5864C33964,6008 33712,6081 33395,6067C32980,6048 32641,5841 32388,5450C32148,5081 32097,4716 32244,4417C32359,4181 32569,4028 32874,3957C33009,3926 33290,3926 33410,3958C33513,3985 33562,3985 33615,3961C33674,3935 33714,3882 33775,3753C33805,3690 33849,3611 33874,3577C33931,3497 34039,3393 34119,3342C34440,3134 34913,3176 35229,3440C35463,3637 35586,3963 35551,4300C35539,4419 35508,4560 35470,4666C35458,4698 35383,4857 35302,5018L35155,5312L35155,5414C35155,5512 35157,5519 35192,5591C35238,5682 35330,5786 35399,5824C35439,5846 35465,5852 35509,5852C35578,5852 35609,5838 35687,5769C35751,5712 35779,5696 35828,5685C35922,5665 36052,5807 36052,5931C36052,6006 36013,6076 35924,6159C35757,6315 35512,6377 35290,6319ZM33508,5589C33583,5552 33642,5451 33626,5386C33608,5312 33445,5203 33270,5148C33209,5130 33173,5125 33080,5125C32965,5125 32860,5143 32860,5162C32860,5183 32958,5318 33023,5386C33096,5464 33207,5546 33292,5585C33361,5617 33446,5619 33508,5589Z" style="fill:rgb(71,49,121);fill-rule:nonzero;"/>
                        <path d="M28025,6277C27975,6248 27927,6185 27905,6118C27872,6019 27818,5887 27735,5707C27655,5535 27651,5529 27637,5552C27629,5564 27583,5647 27535,5735C27367,6041 27315,6117 27252,6149C27167,6191 27087,6181 26949,6109C26850,6057 26810,6014 26810,5959C26810,5913 26822,5886 26884,5798C26908,5763 26942,5706 26960,5671C26978,5635 27023,5570 27060,5526C27266,5280 27346,5058 27318,4805C27301,4643 27243,4500 27120,4316C27019,4166 26996,4111 26996,4025C26995,3935 27029,3860 27100,3790C27160,3732 27237,3683 27250,3696C27255,3701 27351,3884 27463,4103C27576,4322 27670,4504 27673,4506C27676,4509 27726,4433 27786,4338C27845,4243 27936,4101 27987,4022C28038,3943 28089,3862 28099,3842C28121,3799 28156,3765 28187,3756C28244,3738 28403,3861 28436,3946C28470,4036 28435,4138 28317,4287C28052,4622 27968,4965 28074,5278C28124,5423 28214,5573 28338,5716C28377,5761 28416,5812 28425,5829C28434,5847 28460,5891 28484,5928C28585,6085 28567,6143 28394,6221C28213,6304 28102,6321 28025,6277Z" style="fill:rgb(71,49,121);fill-rule:nonzero;"/>
                        <path d="M25135,6119C24980,6101 24846,6013 24728,5853L24682,5791L24670,5838C24651,5916 24611,5979 24562,6007C24500,6044 24442,6036 24297,5970C24036,5852 23999,5775 24075,5508C24095,5440 24154,5259 24206,5105C24485,4287 24544,4096 24606,3793C24625,3698 24644,3571 24649,3510C24659,3369 24669,3355 24764,3356C24842,3357 24911,3388 24940,3434C24977,3494 24975,3537 24926,3815C24828,4370 24788,4701 24786,4945C24786,5076 24790,5130 24803,5180C24861,5397 24988,5516 25223,5574C25367,5610 25415,5642 25465,5740C25492,5790 25489,5891 25461,5955C25406,6080 25293,6137 25135,6119Z" style="fill:rgb(71,49,121);fill-rule:nonzero;"/>
                        <path d="M26347,5736C26290,5720 26253,5688 26241,5643C26232,5610 26242,5194 26255,5090C26258,5065 26265,4962 26270,4860C26285,4579 26261,4343 26199,4162C26149,4016 26067,3950 25936,3950C25775,3951 25682,4048 25602,4300C25524,4546 25488,4784 25486,5073L25485,5282L25452,5311C25423,5337 25413,5340 25347,5340C25220,5340 25128,5277 25095,5168C25077,5106 25074,4766 25091,4612C25118,4357 25183,4133 25291,3915C25373,3748 25466,3614 25575,3505C25693,3386 25796,3341 25948,3340C26090,3340 26225,3404 26339,3525C26410,3601 26452,3674 26538,3869C26573,3949 26606,4019 26610,4024C26614,4028 26637,3992 26661,3944C26740,3780 26807,3694 26888,3651C26919,3634 26922,3639 26911,3691C26893,3771 26811,4321 26785,4530C26754,4791 26724,5122 26710,5367C26698,5581 26684,5644 26639,5689C26584,5744 26455,5765 26347,5736Z" style="fill:rgb(71,49,121);fill-rule:nonzero;"/>
                        <path d="M29605,3695C29572,3688 29529,3676 29510,3668C29490,3660 29432,3650 29380,3646C28817,3603 27731,3363 26480,3005C25823,2817 25040,2580 24990,2555C24864,2491 24845,2396 24919,2203C24969,2073 25007,2019 25063,1996C25106,1978 25116,1977 25170,1988C25203,1995 25299,2030 25383,2066C26167,2404 27163,2763 28330,3128C28952,3323 29797,3577 29862,3589C29934,3602 29985,3628 30029,3674L30064,3710L29864,3709C29740,3709 29642,3703 29605,3695Z" style="fill:rgb(71,49,121);fill-rule:nonzero;"/>
                        <path d="M28365,2753C27695,2561 27122,2353 26300,2005C26154,1943 26010,1885 25980,1875C25844,1832 25819,1786 25855,1645C25903,1459 26010,1354 26203,1303C26301,1277 26334,1290 26479,1415C26822,1710 27120,1897 28245,2520C28427,2620 28582,2709 28590,2716C28602,2728 28600,2734 28575,2760C28538,2798 28519,2798 28365,2753Z" style="fill:rgb(71,49,121);fill-rule:nonzero;"/>
                    </g>
                </g>
            </g>
        </g>
    </g>
</svg>
